<?xml version="1.0" encoding="UTF-8" standalone="no"?>
<!DOCTYPE svg PUBLIC "-//W3C//DTD SVG 1.1//EN"
 "http://www.w3.org/Graphics/SVG/1.1/DTD/svg11.dtd">
<!-- Generated by graphviz version 2.43.0 (0)
 -->
<!-- Title: Graphical Class Hierarchy Pages: 1 -->
<svg width="586pt" height="108pt"
 viewBox="0.00 0.00 586.00 108.00" xmlns="http://www.w3.org/2000/svg" xmlns:xlink="http://www.w3.org/1999/xlink">
<g id="graph0" class="graph" transform="scale(1 1) rotate(0) translate(4 104)">
<title>Graphical Class Hierarchy</title>
<polygon fill="white" stroke="transparent" points="-4,4 -4,-104 582,-104 582,4 -4,4"/>
<!-- Node1 -->
<g id="node1" class="node">
<title>Node1</title>
<g id="a_node1"><a xlink:href="classgr_1_1UConn2402_1_1CrossCorrDown__impl.html" target="_top" xlink:title=" ">
<polygon fill="white" stroke="black" points="0,-56 0,-86 142,-86 142,-56 0,-56"/>
<text text-anchor="start" x="8" y="-74" font-family="Helvetica,sans-Serif" font-size="10.00">gr::UConn2402::CrossCorr</text>
<text text-anchor="middle" x="71" y="-63" font-family="Helvetica,sans-Serif" font-size="10.00">Down_impl</text>
</a>
</g>
</g>
<!-- Node0 -->
<g id="node2" class="node">
<title>Node0</title>
<g id="a_node2"><a xlink:href="classgr_1_1UConn2402_1_1CrossCorrDown.html" target="_top" xlink:title="&lt;+description of block+&gt;">
<polygon fill="white" stroke="black" points="178,-80.5 178,-99.5 348,-99.5 348,-80.5 178,-80.5"/>
<text text-anchor="middle" x="263" y="-87.5" font-family="Helvetica,sans-Serif" font-size="10.00">gr::UConn2402::CrossCorrDown</text>
</a>
</g>
</g>
<!-- Node1&#45;&gt;Node0 -->
<g id="edge1" class="edge">
<title>Node1&#45;&gt;Node0</title>
<path fill="none" stroke="midnightblue" d="M152.19,-72.34C176.56,-74.54 202.26,-77.47 222.67,-80.48"/>
<polygon fill="midnightblue" stroke="midnightblue" points="152.47,-68.85 142.21,-71.48 151.87,-75.83 152.47,-68.85"/>
</g>
<!-- Node4 -->
<g id="node3" class="node">
<title>Node4</title>
<g id="a_node3"><a xlink:href="classgr_1_1UConn2402_1_1CrossCorrUp.html" target="_top" xlink:title="&lt;+description of block+&gt;">
<polygon fill="white" stroke="black" points="185.5,-42.5 185.5,-61.5 340.5,-61.5 340.5,-42.5 185.5,-42.5"/>
<text text-anchor="middle" x="263" y="-49.5" font-family="Helvetica,sans-Serif" font-size="10.00">gr::UConn2402::CrossCorrUp</text>
</a>
</g>
</g>
<!-- Node1&#45;&gt;Node4 -->
<g id="edge3" class="edge">
<title>Node1&#45;&gt;Node4</title>
<path fill="none" stroke="midnightblue" d="M152.21,-62.98C163.19,-61.88 174.45,-60.75 185.37,-59.66"/>
<polygon fill="midnightblue" stroke="midnightblue" points="151.81,-59.5 142.21,-63.98 152.51,-66.47 151.81,-59.5"/>
</g>
<!-- Node6 -->
<g id="node5" class="node">
<title>Node6</title>
<g id="a_node5"><a xlink:href="classgr_1_1UConn2402_1_1LFMChirpXCorr.html" target="_top" xlink:title="&lt;+description of block+&gt;">
<polygon fill="white" stroke="black" points="179.5,-3.5 179.5,-22.5 346.5,-22.5 346.5,-3.5 179.5,-3.5"/>
<text text-anchor="middle" x="263" y="-10.5" font-family="Helvetica,sans-Serif" font-size="10.00">gr::UConn2402::LFMChirpXCorr</text>
</a>
</g>
</g>
<!-- Node1&#45;&gt;Node6 -->
<g id="edge5" class="edge">
<title>Node1&#45;&gt;Node6</title>
<path fill="none" stroke="midnightblue" d="M120.57,-52.31C138.48,-45.76 159.03,-38.64 178,-33 190.79,-29.2 204.84,-25.62 217.73,-22.57"/>
<polygon fill="midnightblue" stroke="midnightblue" points="119.09,-49.13 110.92,-55.88 121.52,-55.7 119.09,-49.13"/>
</g>
<!-- Node0&#45;&gt;Node1 -->
<g id="edge2" class="edge">
<title>Node0&#45;&gt;Node1</title>
<path fill="none" stroke="midnightblue" d="M167.82,-87.33C159.2,-86.47 150.57,-85.54 142.21,-84.56"/>
<polygon fill="midnightblue" stroke="midnightblue" points="167.64,-90.83 177.93,-88.3 168.31,-83.86 167.64,-90.83"/>
</g>
<!-- Node5 -->
<g id="node4" class="node">
<title>Node5</title>
<g id="a_node4"><a xlink:href="classgr_1_1UConn2402_1_1CrossCorrUp__impl.html" target="_top" xlink:title=" ">
<polygon fill="white" stroke="black" points="410,-39 410,-69 552,-69 552,-39 410,-39"/>
<text text-anchor="start" x="418" y="-57" font-family="Helvetica,sans-Serif" font-size="10.00">gr::UConn2402::CrossCorr</text>
<text text-anchor="middle" x="481" y="-46" font-family="Helvetica,sans-Serif" font-size="10.00">Up_impl</text>
</a>
</g>
</g>
<!-- Node4&#45;&gt;Node5 -->
<g id="edge4" class="edge">
<title>Node4&#45;&gt;Node5</title>
<path fill="none" stroke="midnightblue" d="M350.92,-52.8C370.55,-52.99 391.14,-53.18 409.97,-53.35"/>
<polygon fill="midnightblue" stroke="midnightblue" points="350.79,-49.3 340.76,-52.71 350.73,-56.3 350.79,-49.3"/>
</g>
<!-- Node7 -->
<g id="node6" class="node">
<title>Node7</title>
<g id="a_node6"><a xlink:href="classgr_1_1UConn2402_1_1LFMChirpXCorr__impl.html" target="_top" xlink:title=" ">
<polygon fill="white" stroke="black" points="384,-0.5 384,-19.5 578,-19.5 578,-0.5 384,-0.5"/>
<text text-anchor="middle" x="481" y="-7.5" font-family="Helvetica,sans-Serif" font-size="10.00">gr::UConn2402::LFMChirpXCorr_impl</text>
</a>
</g>
</g>
<!-- Node6&#45;&gt;Node7 -->
<g id="edge6" class="edge">
<title>Node6&#45;&gt;Node7</title>
<path fill="none" stroke="midnightblue" d="M356.64,-11.71C365.61,-11.59 374.72,-11.46 383.73,-11.34"/>
<polygon fill="midnightblue" stroke="midnightblue" points="356.54,-8.21 346.58,-11.85 356.63,-15.21 356.54,-8.21"/>
</g>
</g>
</svg>
