<?xml version="1.0" encoding="UTF-8" standalone="no"?>
<!DOCTYPE svg PUBLIC "-//W3C//DTD SVG 1.1//EN"
 "http://www.w3.org/Graphics/SVG/1.1/DTD/svg11.dtd">
<!-- Generated by graphviz version 2.43.0 (0)
 -->
<!-- Title: LFMChirpXCorr_impl.h Pages: 1 -->
<svg width="244pt" height="218pt"
 viewBox="0.00 0.00 243.50 218.00" xmlns="http://www.w3.org/2000/svg" xmlns:xlink="http://www.w3.org/1999/xlink">
<g id="graph0" class="graph" transform="scale(1 1) rotate(0) translate(4 214)">
<title>LFMChirpXCorr_impl.h</title>
<polygon fill="white" stroke="transparent" points="-4,4 -4,-214 239.5,-214 239.5,4 -4,4"/>
<!-- Node1 -->
<g id="node1" class="node">
<title>Node1</title>
<g id="a_node1"><a xlink:title=" ">
<polygon fill="#bfbfbf" stroke="black" points="60,-190.5 60,-209.5 185,-209.5 185,-190.5 60,-190.5"/>
<text text-anchor="middle" x="122.5" y="-197.5" font-family="Helvetica,sans-Serif" font-size="10.00">LFMChirpXCorr_impl.h</text>
</a>
</g>
</g>
<!-- Node2 -->
<g id="node2" class="node">
<title>Node2</title>
<g id="a_node2"><a xlink:href="LFMChirpXCorr_8h.html" target="_top" xlink:title=" ">
<polygon fill="white" stroke="black" points="63,-123.5 63,-153.5 182,-153.5 182,-123.5 63,-123.5"/>
<text text-anchor="start" x="71" y="-141.5" font-family="Helvetica,sans-Serif" font-size="10.00">gnuradio/UConn2402</text>
<text text-anchor="middle" x="122.5" y="-130.5" font-family="Helvetica,sans-Serif" font-size="10.00">/LFMChirpXCorr.h</text>
</a>
</g>
</g>
<!-- Node1&#45;&gt;Node2 -->
<g id="edge1" class="edge">
<title>Node1&#45;&gt;Node2</title>
<path fill="none" stroke="midnightblue" d="M122.5,-190.48C122.5,-183.47 122.5,-173.19 122.5,-163.7"/>
<polygon fill="midnightblue" stroke="midnightblue" points="126,-163.52 122.5,-153.52 119,-163.52 126,-163.52"/>
</g>
<!-- Node3 -->
<g id="node3" class="node">
<title>Node3</title>
<g id="a_node3"><a xlink:href="api_8h.html" target="_top" xlink:title=" ">
<polygon fill="white" stroke="black" points="0,-56.5 0,-86.5 119,-86.5 119,-56.5 0,-56.5"/>
<text text-anchor="start" x="8" y="-74.5" font-family="Helvetica,sans-Serif" font-size="10.00">gnuradio/UConn2402</text>
<text text-anchor="middle" x="59.5" y="-63.5" font-family="Helvetica,sans-Serif" font-size="10.00">/api.h</text>
</a>
</g>
</g>
<!-- Node2&#45;&gt;Node3 -->
<g id="edge2" class="edge">
<title>Node2&#45;&gt;Node3</title>
<path fill="none" stroke="midnightblue" d="M108.83,-123.4C100.49,-114.79 89.67,-103.63 80.28,-93.94"/>
<polygon fill="midnightblue" stroke="midnightblue" points="82.62,-91.32 73.14,-86.58 77.59,-96.19 82.62,-91.32"/>
</g>
<!-- Node5 -->
<g id="node5" class="node">
<title>Node5</title>
<g id="a_node5"><a xlink:title=" ">
<polygon fill="white" stroke="#bfbfbf" points="137.5,-62 137.5,-81 235.5,-81 235.5,-62 137.5,-62"/>
<text text-anchor="middle" x="186.5" y="-69" font-family="Helvetica,sans-Serif" font-size="10.00">gnuradio/block.h</text>
</a>
</g>
</g>
<!-- Node2&#45;&gt;Node5 -->
<g id="edge4" class="edge">
<title>Node2&#45;&gt;Node5</title>
<path fill="none" stroke="midnightblue" d="M136.39,-123.4C146.46,-113.16 160.12,-99.3 170.63,-88.62"/>
<polygon fill="midnightblue" stroke="midnightblue" points="173.42,-90.78 177.94,-81.19 168.43,-85.86 173.42,-90.78"/>
</g>
<!-- Node4 -->
<g id="node4" class="node">
<title>Node4</title>
<g id="a_node4"><a xlink:title=" ">
<polygon fill="white" stroke="#bfbfbf" points="0,-0.5 0,-19.5 119,-19.5 119,-0.5 0,-0.5"/>
<text text-anchor="middle" x="59.5" y="-7.5" font-family="Helvetica,sans-Serif" font-size="10.00">gnuradio/attributes.h</text>
</a>
</g>
</g>
<!-- Node3&#45;&gt;Node4 -->
<g id="edge3" class="edge">
<title>Node3&#45;&gt;Node4</title>
<path fill="none" stroke="midnightblue" d="M59.5,-56.4C59.5,-48.47 59.5,-38.46 59.5,-29.86"/>
<polygon fill="midnightblue" stroke="midnightblue" points="63,-29.66 59.5,-19.66 56,-29.66 63,-29.66"/>
</g>
</g>
</svg>
